<?xml version="1.0" encoding="UTF-8"?>
<svg version="1.1" xmlns="http://www.w3.org/2000/svg" width="600" height="600">
<path d="M0 0 C198 0 396 0 600 0 C600 198 600 396 600 600 C402 600 204 600 0 600 C0 402 0 204 0 0 Z " fill="#034EA2" transform="translate(0,0)"/>
<path d="M0 0 C198 0 396 0 600 0 C600 39.27 600 78.54 600 119 C402 119 204 119 0 119 C0 79.73 0 40.46 0 0 Z " fill="#D12026" transform="translate(0,481)"/>
<path d="M0 0 C0.66 0 1.32 0 2 0 C2.30683716 0.9580957 2.30683716 0.9580957 2.61987305 1.93554688 C9.10056548 22.15999083 15.65528993 42.36000317 22.22802734 62.5546875 C23.75905866 67.25899155 25.28889083 71.96368475 26.81843567 76.66847229 C28.07451284 80.53177965 29.33109776 84.39492175 30.58779907 88.25802612 C31.18625365 90.09791708 31.78454612 91.93786078 32.38265991 93.77786255 C33.22332596 96.36380011 34.06464565 98.94952392 34.90625 101.53515625 C35.16968704 102.34529678 35.43312408 103.15543732 35.70454407 103.99012756 C36.95711421 107.83405987 38.22190873 111.67312081 39.515625 115.50341797 C39.86868713 116.55039101 39.86868713 116.55039101 40.22888184 117.61851501 C40.86127091 119.48811706 41.49785822 121.3562976 42.13476562 123.22436523 C43 126 43 126 43 128 C43.98166138 127.99666908 43.98166138 127.99666908 44.9831543 127.99327087 C53.65542202 127.96537124 62.32769517 127.94787366 71 127.9375 C71.71038799 127.93664398 72.42077599 127.93578796 73.15269089 127.93490601 C98.12616048 127.90843447 123.09190386 128.1290503 148.0625 128.5 C148.86782166 128.51195782 149.67314331 128.52391563 150.50286865 128.53623581 C160.33537511 128.682947 170.16774254 128.8374261 180 129 C175.65036442 132.49113907 171.2113035 135.80217503 166.6875 139.0625 C165.89134277 139.63685791 165.09518555 140.21121582 164.27490234 140.80297852 C158.62348393 144.86560194 152.92062184 148.84471941 147.17358398 152.77050781 C141.83989297 156.41468509 136.53961483 160.10465888 131.25 163.8125 C130.40969238 164.401521 129.56938477 164.99054199 128.70361328 165.59741211 C126.99043991 166.79865703 125.27738714 168.00007396 123.56445312 169.20166016 C120.20739237 171.55582139 116.84831983 173.90710106 113.48901367 176.25805664 C111.83277372 177.41718092 110.17668588 178.57652257 108.52075195 179.73608398 C104.2438911 182.73085277 99.96520618 185.72296524 95.68359375 188.7109375 C87.06352125 194.72971459 78.46732809 200.76732835 70 207 C71.96473213 214.42194711 74.12605343 221.7541506 76.4765625 229.0625 C76.8033902 230.08459061 77.1302179 231.10668121 77.46694946 232.15974426 C78.5170694 235.44065744 79.57085603 238.72037774 80.625 242 C81.34996385 244.26130257 82.07489863 246.52261445 82.79980469 248.78393555 C86.8752163 261.48055571 90.98202916 274.16495726 95.26025391 286.79492188 C96.89153077 291.61694586 98.45432488 296.44926258 99.93359375 301.3203125 C101.33676022 305.92374902 102.82707797 310.48502205 104.39453125 315.03515625 C104.79220703 316.19337891 105.18988281 317.35160156 105.59960938 318.54492188 C106.42111575 320.92742266 107.24945175 323.30757757 108.08398438 325.68554688 C108.67083008 327.40547852 108.67083008 327.40547852 109.26953125 329.16015625 C109.62635986 330.18761963 109.98318848 331.21508301 110.35083008 332.27368164 C111.00656721 335.02758031 110.97317936 336.38362819 110 339 C109.51869629 338.64397705 109.03739258 338.2879541 108.54150391 337.92114258 C96.74939057 329.20323235 84.90278381 320.56604196 73 312 C62.9966459 304.80091511 53.02664086 297.56159523 43.11450195 290.23730469 C36.94723576 285.68507907 30.75043854 281.17539173 24.5168457 276.71435547 C20.87066632 274.10017471 17.26399297 271.45189154 13.71484375 268.70703125 C13.03518555 268.18778076 12.35552734 267.66853027 11.65527344 267.13354492 C10.37929615 266.15534844 9.11232613 265.16524436 7.85644531 264.16137695 C5.42634689 262.31051408 3.66689572 261.03318422 0.56640625 260.87890625 C-3.23841516 262.54098196 -6.41541032 264.8580678 -9.75 267.3125 C-11.2771584 268.41431944 -12.80450741 269.51587474 -14.33203125 270.6171875 C-15.10885254 271.18147461 -15.88567383 271.74576172 -16.68603516 272.32714844 C-20.24469652 274.89983758 -23.8427948 277.41557124 -27.4375 279.9375 C-33.32219261 284.08328633 -39.17022532 288.2773999 -45 292.5 C-52.9192444 298.23603681 -60.89256592 303.89135229 -68.89111328 309.51611328 C-72.43041167 312.00648786 -75.96495283 314.50359652 -79.5 317 C-80.89450865 317.98440701 -82.28903999 318.96878189 -83.68359375 319.953125 C-84.38210449 320.44619141 -85.08061523 320.93925781 -85.80029297 321.44726562 C-92.20019531 325.96484375 -98.60009766 330.48242188 -105 335 C-106.35623706 331.30439017 -105.60815166 329.13424332 -104.2734375 325.50390625 C-102.10996566 319.37654545 -100.33064516 313.20526213 -98.625 306.9375 C-96.27505463 298.4101381 -93.77584477 289.95780601 -91.05908203 281.54077148 C-89.18641737 275.70079944 -87.59817258 269.81293398 -86.0625 263.875 C-84.86076956 259.36851085 -83.42768563 254.93903741 -82 250.5 C-79.79475618 243.63726481 -77.81073051 236.77171867 -76.015625 229.7890625 C-75.25998212 226.96993328 -74.46315661 224.18768879 -73.609375 221.3984375 C-73.37355713 220.6245166 -73.13773926 219.8505957 -72.89477539 219.05322266 C-72.43255599 217.54801801 -71.96328163 216.04495691 -71.48608398 214.54443359 C-70.14563952 210.30000352 -70.14563952 210.30000352 -71 206 C-72.40310934 204.69795516 -72.40310934 204.69795516 -74.18359375 203.5390625 C-74.85455078 203.07435547 -75.52550781 202.60964844 -76.21679688 202.13085938 C-76.94962891 201.63392578 -77.68246094 201.13699219 -78.4375 200.625 C-79.99941373 199.54530561 -81.56058818 198.46454113 -83.12109375 197.3828125 C-83.9291748 196.8249707 -84.73725586 196.26712891 -85.56982422 195.69238281 C-89.41725728 193.01301713 -93.20771391 190.25659339 -97 187.5 C-102.80496729 183.29219636 -108.6351379 179.12390118 -114.5 175 C-121.12922712 170.33863251 -127.70728537 165.61055569 -134.26953125 160.85546875 C-139.32082547 157.20004167 -144.39967427 153.58663863 -149.5 150 C-155.66980721 145.65809539 -161.8149064 141.28326739 -167.9375 136.875 C-168.71351563 136.318125 -169.48953125 135.76125 -170.2890625 135.1875 C-171.00707031 134.66929687 -171.72507812 134.15109375 -172.46484375 133.6171875 C-173.100271 133.15940918 -173.73569824 132.70163086 -174.39038086 132.22998047 C-176 131 -176 131 -178 129 C-132.79 129 -87.58 129 -41 129 C-40.34 126.03 -39.68 123.06 -39 120 C-38.1157146 117.1591422 -37.20598653 114.35253157 -36.234375 111.54296875 C-35.69666092 109.95902677 -35.15956788 108.37487384 -34.62304688 106.79052734 C-34.35194092 105.99322205 -34.08083496 105.19591675 -33.80151367 104.37445068 C-32.55170206 100.67193613 -31.34428375 96.95601008 -30.140625 93.23828125 C-29.90617676 92.51517761 -29.67172852 91.79207397 -29.43017578 91.04705811 C-28.94963258 89.56408839 -28.46941106 88.0810144 -27.98950195 86.59783936 C-27.22493698 84.23504584 -26.45922545 81.87262599 -25.69335938 79.51025391 C-23.16542895 71.70936492 -20.64611363 63.90578236 -18.140625 56.09765625 C-17.68979947 54.69424787 -17.23895356 53.29084603 -16.78808594 51.88745117 C-15.95557017 49.29592897 -15.12590305 46.70355386 -14.29785156 44.1105957 C-12.2907743 37.85886767 -10.17140718 31.67391015 -7.89746094 25.51464844 C-6.56544825 21.78240397 -5.45486766 17.99900656 -4.375 14.1875 C-3.00970433 9.42192681 -1.6057881 4.69214228 0 0 Z " fill="#FDFEFE" transform="translate(299,71)"/>
<path d="M0 0 C198 0 396 0 600 0 C600 15.84 600 31.68 600 48 C402 48 204 48 0 48 C0 32.16 0 16.32 0 0 Z " fill="#FEFDFD" transform="translate(0,481)"/>
</svg>
